<svg width="1720" height="358" viewBox="0 0 1720 358" fill="none" xmlns="http://www.w3.org/2000/svg">
<path d="M1709.5 52.8097C1709.46 52.8098 1709.42 52.8051 1709.38 52.7957L1567.8 18.0877C1474.86 -4.69592 1377.8 -4.69592 1284.87 18.0877C1238.49 29.4508 1190.91 35.1973 1143.17 35.2037C1095.42 35.1973 1047.84 29.4507 1001.47 18.0877C908.531 -4.69588 811.469 -4.69588 718.535 18.0877C672.159 29.4508 624.584 35.1973 576.835 35.2037C529.087 35.1973 481.512 29.4508 435.135 18.0877C342.201 -4.69592 245.139 -4.69592 152.205 18.0877L10.6134 52.7957C10.4852 52.8258 10.3503 52.8042 10.2379 52.7355C10.1256 52.6668 10.0449 52.5565 10.0134 52.4287C9.98315 52.3006 10.0046 52.1658 10.0731 52.0535C10.1417 51.9412 10.2517 51.8604 10.3794 51.8287L151.962 17.1207C245.051 -5.70018 342.274 -5.70018 435.362 17.1207C481.663 28.4636 529.159 34.1991 576.828 34.2037C624.498 34.1975 671.995 28.4603 718.295 17.1157C811.384 -5.70523 908.607 -5.70523 1001.7 17.1157C1048 28.4601 1095.49 34.1973 1143.16 34.2037C1190.83 34.1973 1238.32 28.4601 1284.62 17.1157C1377.71 -5.70519 1474.94 -5.70519 1568.02 17.1157L1709.61 51.8237C1709.73 51.8525 1709.83 51.9238 1709.9 52.0244C1709.97 52.1249 1710 52.2476 1709.99 52.3691C1709.97 52.4906 1709.91 52.6026 1709.82 52.6838C1709.73 52.765 1709.61 52.8098 1709.49 52.8097H1709.5Z" fill="white" fill-opacity="0.15"/>
<path d="M1709.5 78.7147C1709.46 78.7148 1709.42 78.7101 1709.38 78.7007L1567.8 43.9927C1474.86 21.2091 1377.8 21.2091 1284.87 43.9927C1238.49 55.3558 1190.91 61.1023 1143.17 61.1087C1095.42 61.1023 1047.84 55.3557 1001.47 43.9927C908.531 21.2091 811.469 21.2091 718.535 43.9927C672.159 55.3558 624.584 61.1023 576.835 61.1087C529.087 61.1023 481.512 55.3558 435.135 43.9927C342.201 21.2091 245.139 21.2091 152.205 43.9927L10.6134 78.7007C10.4852 78.7309 10.3503 78.7092 10.2379 78.6405C10.1256 78.5718 10.0449 78.4615 10.0134 78.3337C9.98315 78.2056 10.0046 78.0709 10.0731 77.9585C10.1417 77.8462 10.2517 77.7654 10.3794 77.7337L151.962 43.0257C245.051 20.2045 342.274 20.2045 435.362 43.0257C481.662 54.3697 529.158 60.1066 576.827 60.1127C624.498 60.1051 671.995 54.3666 718.295 43.0207C811.384 20.1995 908.607 20.1995 1001.7 43.0207C1048 54.3647 1095.49 60.1015 1143.16 60.1077C1190.83 60.1015 1238.32 54.3647 1284.62 43.0207C1377.71 20.1995 1474.94 20.1995 1568.02 43.0207L1709.61 77.7287C1709.73 77.7574 1709.83 77.8289 1709.9 77.9294C1709.97 78.0299 1710 78.1525 1709.99 78.2741C1709.97 78.3956 1709.91 78.5076 1709.82 78.5888C1709.73 78.67 1709.61 78.7148 1709.49 78.7147H1709.5Z" fill="white" fill-opacity="0.15"/>
<path d="M1709.5 108.487C1709.46 108.487 1709.42 108.482 1709.38 108.473L1567.8 73.7637C1474.86 50.9801 1377.8 50.9801 1284.87 73.7637C1238.49 85.1268 1190.91 90.8733 1143.17 90.8797C1095.42 90.8733 1047.84 85.1268 1001.47 73.7637C908.531 50.9801 811.469 50.9801 718.535 73.7637C672.159 85.1268 624.584 90.8733 576.835 90.8797C529.087 90.8733 481.512 85.1268 435.135 73.7637C342.201 50.9801 245.139 50.9801 152.205 73.7637L10.6134 108.473C10.4852 108.503 10.3503 108.481 10.2379 108.413C10.1256 108.344 10.0449 108.234 10.0134 108.106C9.98315 107.978 10.0046 107.843 10.0731 107.731C10.1417 107.618 10.2517 107.537 10.3794 107.506L151.962 72.7967C245.051 49.9758 342.274 49.9758 435.362 72.7967C481.663 84.1396 529.159 89.8751 576.828 89.8797C624.498 89.8735 671.995 84.1364 718.295 72.7917C811.384 49.9708 908.607 49.9708 1001.7 72.7917C1048 84.1362 1095.49 89.8733 1143.16 89.8797C1190.83 89.8733 1238.32 84.1361 1284.62 72.7917C1377.71 49.9708 1474.94 49.9708 1568.02 72.7917L1709.61 107.501C1709.73 107.529 1709.83 107.601 1709.9 107.701C1709.97 107.802 1710 107.925 1709.99 108.046C1709.97 108.168 1709.91 108.28 1709.82 108.361C1709.73 108.442 1709.61 108.487 1709.49 108.487H1709.5Z" fill="white" fill-opacity="0.15"/>
<path d="M1709.5 136.324C1709.46 136.324 1709.42 136.319 1709.38 136.31L1567.8 101.601C1474.86 78.8171 1377.8 78.8171 1284.87 101.601C1238.49 112.964 1190.91 118.71 1143.17 118.717C1095.42 118.71 1047.84 112.964 1001.47 101.601C908.531 78.8171 811.469 78.8171 718.535 101.601C672.159 112.964 624.584 118.71 576.835 118.717C529.087 118.71 481.512 112.964 435.135 101.601C342.201 78.8171 245.139 78.8171 152.205 101.601L10.6134 136.31C10.4852 136.34 10.3503 136.318 10.2379 136.25C10.1256 136.181 10.0449 136.071 10.0134 135.943C9.98315 135.815 10.0046 135.68 10.0731 135.568C10.1417 135.455 10.2517 135.374 10.3794 135.343L151.962 100.634C245.051 77.8128 342.274 77.8128 435.362 100.634C481.662 111.978 529.158 117.715 576.827 117.722C624.498 117.714 671.995 111.975 718.295 100.629C811.384 77.8078 908.607 77.8078 1001.7 100.629C1048 111.973 1095.49 117.71 1143.16 117.717C1190.83 117.71 1238.32 111.973 1284.62 100.629C1377.71 77.8078 1474.94 77.8078 1568.02 100.629L1709.61 135.342C1709.73 135.37 1709.84 135.442 1709.91 135.542C1709.98 135.643 1710.01 135.766 1709.99 135.887C1709.98 136.009 1709.92 136.121 1709.83 136.202C1709.74 136.283 1709.62 136.328 1709.5 136.328L1709.5 136.324Z" fill="white" fill-opacity="0.15"/>
<path d="M1709.5 166.098C1709.46 166.098 1709.42 166.093 1709.38 166.084L1567.8 131.373C1474.86 108.589 1377.8 108.589 1284.87 131.373C1238.49 142.736 1190.91 148.482 1143.17 148.489C1095.42 148.482 1047.84 142.736 1001.47 131.373C908.531 108.589 811.469 108.589 718.535 131.373C672.159 142.736 624.584 148.482 576.835 148.489C529.087 148.482 481.512 142.736 435.135 131.373C342.201 108.589 245.139 108.589 152.205 131.373L10.6134 166.081C10.4852 166.111 10.3503 166.089 10.2379 166.02C10.1256 165.952 10.0449 165.842 10.0134 165.714C9.98315 165.586 10.0046 165.451 10.0731 165.338C10.1417 165.226 10.2517 165.145 10.3794 165.114L151.959 130.398C245.048 107.577 342.271 107.577 435.359 130.398C481.66 141.743 529.158 147.481 576.828 147.488C624.499 147.481 671.995 141.743 718.295 130.398C811.384 107.577 908.607 107.577 1001.7 130.398C1048 141.742 1095.49 147.478 1143.16 147.485C1190.83 147.479 1238.33 141.742 1284.63 130.398C1377.71 107.577 1474.94 107.577 1568.03 130.398L1709.61 165.106C1709.73 165.134 1709.83 165.206 1709.9 165.306C1709.97 165.407 1710 165.53 1709.99 165.651C1709.97 165.773 1709.92 165.885 1709.82 165.966C1709.73 166.047 1709.61 166.092 1709.49 166.092L1709.5 166.098Z" fill="white" fill-opacity="0.15"/>
<path d="M1709.5 192C1709.46 192 1709.42 191.995 1709.38 191.986L1567.8 157.278C1474.86 134.494 1377.8 134.494 1284.87 157.278C1238.49 168.641 1190.91 174.387 1143.17 174.394C1095.42 174.387 1047.84 168.641 1001.47 157.278C908.531 134.494 811.469 134.494 718.535 157.278C672.159 168.641 624.584 174.387 576.835 174.394C529.087 174.387 481.512 168.641 435.135 157.278C342.201 134.494 245.139 134.494 152.205 157.278L10.6134 191.988C10.4852 192.018 10.3503 191.996 10.2379 191.928C10.1256 191.859 10.0449 191.749 10.0134 191.621C9.98315 191.493 10.0046 191.358 10.0731 191.246C10.1417 191.133 10.2517 191.052 10.3794 191.021L151.962 156.313C245.051 133.492 342.274 133.492 435.362 156.313C481.662 167.657 529.158 173.394 576.827 173.4C624.498 173.392 671.995 167.652 718.295 156.306C811.384 133.485 908.607 133.485 1001.7 156.306C1048 167.65 1095.49 173.387 1143.16 173.393C1190.83 173.387 1238.32 167.65 1284.62 156.306C1377.71 133.485 1474.94 133.485 1568.02 156.306L1709.61 191.014C1709.73 191.042 1709.83 191.114 1709.9 191.214C1709.97 191.315 1710 191.438 1709.99 191.559C1709.97 191.681 1709.91 191.793 1709.82 191.874C1709.73 191.955 1709.61 192 1709.49 192H1709.5Z" fill="white" fill-opacity="0.15"/>
<path d="M1709.5 218.81C1709.46 218.81 1709.42 218.805 1709.38 218.796L1567.8 184.088C1474.86 161.304 1377.8 161.304 1284.87 184.088C1238.49 195.451 1190.91 201.197 1143.17 201.204C1095.42 201.197 1047.84 195.451 1001.47 184.088C908.531 161.304 811.469 161.304 718.535 184.088C672.159 195.451 624.584 201.197 576.835 201.204C529.087 201.197 481.512 195.451 435.135 184.088C342.201 161.304 245.139 161.304 152.205 184.088L10.6134 218.796C10.4852 218.826 10.3503 218.804 10.2379 218.736C10.1256 218.667 10.0449 218.557 10.0134 218.429C9.98315 218.301 10.0046 218.166 10.0731 218.054C10.1417 217.941 10.2517 217.86 10.3794 217.829L151.962 183.121C245.051 160.3 342.274 160.3 435.362 183.121C481.663 194.464 529.159 200.199 576.828 200.204C624.498 200.197 671.995 194.46 718.295 183.116C811.384 160.295 908.607 160.295 1001.7 183.116C1048 194.46 1095.49 200.197 1143.16 200.204C1190.83 200.197 1238.32 194.46 1284.62 183.116C1377.71 160.295 1474.94 160.295 1568.02 183.116L1709.61 217.824C1709.73 217.852 1709.83 217.924 1709.9 218.024C1709.97 218.125 1710 218.248 1709.99 218.369C1709.97 218.491 1709.91 218.603 1709.82 218.684C1709.73 218.765 1709.61 218.81 1709.49 218.81H1709.5Z" fill="white" fill-opacity="0.15"/>
<path d="M1709.5 244.715C1709.46 244.715 1709.42 244.71 1709.38 244.701L1567.8 209.993C1474.86 187.209 1377.8 187.209 1284.87 209.993C1238.49 221.356 1190.91 227.102 1143.17 227.109C1095.42 227.102 1047.84 221.356 1001.47 209.993C908.531 187.209 811.469 187.209 718.535 209.993C672.159 221.356 624.584 227.102 576.835 227.109C529.087 227.102 481.512 221.356 435.135 209.993C342.201 187.209 245.139 187.209 152.205 209.993L10.6134 244.701C10.4852 244.731 10.3503 244.709 10.2379 244.641C10.1256 244.572 10.0449 244.462 10.0134 244.334C9.98315 244.206 10.0046 244.071 10.0731 243.959C10.1417 243.846 10.2517 243.765 10.3794 243.734L151.962 209.026C245.051 186.205 342.274 186.205 435.362 209.026C481.662 220.37 529.158 226.107 576.827 226.113C624.498 226.105 671.995 220.367 718.295 209.021C811.384 186.199 908.607 186.199 1001.7 209.021C1048 220.365 1095.49 226.102 1143.16 226.108C1190.83 226.101 1238.32 220.365 1284.62 209.021C1377.71 186.2 1474.94 186.2 1568.02 209.021L1709.61 243.729C1709.73 243.757 1709.83 243.829 1709.9 243.929C1709.97 244.03 1710 244.153 1709.99 244.274C1709.97 244.396 1709.91 244.508 1709.82 244.589C1709.73 244.67 1709.61 244.715 1709.49 244.715H1709.5Z" fill="white" fill-opacity="0.15"/>
<path d="M1709.5 274.487C1709.46 274.487 1709.42 274.482 1709.38 274.473L1567.8 239.764C1474.86 216.98 1377.8 216.98 1284.87 239.764C1238.49 251.127 1190.91 256.873 1143.17 256.88C1095.42 256.873 1047.84 251.127 1001.47 239.764C908.531 216.98 811.469 216.98 718.535 239.764C672.159 251.127 624.584 256.873 576.835 256.88C529.087 256.873 481.512 251.127 435.135 239.764C342.201 216.98 245.139 216.98 152.205 239.764L10.6134 274.473C10.4852 274.503 10.3503 274.481 10.2379 274.413C10.1256 274.344 10.0449 274.234 10.0134 274.106C9.98315 273.978 10.0046 273.843 10.0731 273.731C10.1417 273.618 10.2517 273.537 10.3794 273.506L151.962 238.797C245.051 215.976 342.274 215.976 435.362 238.797C481.663 250.14 529.159 255.875 576.828 255.88C624.498 255.874 671.995 250.136 718.295 238.792C811.384 215.971 908.607 215.971 1001.7 238.792C1048 250.136 1095.49 255.873 1143.16 255.88C1190.83 255.873 1238.32 250.136 1284.62 238.792C1377.71 215.971 1474.94 215.971 1568.02 238.792L1709.61 273.501C1709.73 273.529 1709.83 273.601 1709.9 273.701C1709.97 273.802 1710 273.925 1709.99 274.046C1709.97 274.168 1709.91 274.28 1709.82 274.361C1709.73 274.442 1709.61 274.487 1709.49 274.487H1709.5Z" fill="white" fill-opacity="0.15"/>
<path d="M1709.5 302.324C1709.46 302.324 1709.42 302.319 1709.38 302.31L1567.8 267.601C1474.86 244.817 1377.8 244.817 1284.87 267.601C1238.49 278.964 1190.91 284.71 1143.17 284.717C1095.42 284.71 1047.84 278.964 1001.47 267.601C908.531 244.817 811.469 244.817 718.535 267.601C672.159 278.964 624.584 284.71 576.835 284.717C529.087 284.71 481.512 278.964 435.135 267.601C342.201 244.817 245.139 244.817 152.205 267.601L10.6134 302.31C10.4852 302.34 10.3503 302.318 10.2379 302.25C10.1256 302.181 10.0449 302.071 10.0134 301.943C9.98315 301.815 10.0046 301.68 10.0731 301.568C10.1417 301.455 10.2517 301.374 10.3794 301.343L151.962 266.634C245.051 243.813 342.274 243.813 435.362 266.634C481.662 277.978 529.158 283.715 576.827 283.722C624.498 283.714 671.995 277.975 718.295 266.629C811.384 243.808 908.607 243.808 1001.7 266.629C1048 277.973 1095.49 283.71 1143.16 283.717C1190.83 283.71 1238.32 277.973 1284.62 266.629C1377.71 243.808 1474.94 243.808 1568.02 266.629L1709.61 301.342C1709.73 301.37 1709.84 301.442 1709.91 301.542C1709.98 301.643 1710.01 301.766 1709.99 301.887C1709.98 302.009 1709.92 302.121 1709.83 302.202C1709.74 302.283 1709.62 302.328 1709.5 302.328L1709.5 302.324Z" fill="white" fill-opacity="0.15"/>
<path d="M1709.5 332.098C1709.46 332.098 1709.42 332.093 1709.38 332.084L1567.8 297.373C1474.86 274.589 1377.8 274.589 1284.87 297.373C1238.49 308.736 1190.91 314.482 1143.17 314.489C1095.42 314.482 1047.84 308.736 1001.47 297.373C908.531 274.589 811.469 274.589 718.535 297.373C672.159 308.736 624.584 314.482 576.835 314.489C529.087 314.482 481.512 308.736 435.135 297.373C342.201 274.589 245.139 274.589 152.205 297.373L10.6134 332.081C10.4852 332.111 10.3503 332.089 10.2379 332.02C10.1256 331.952 10.0449 331.842 10.0134 331.714C9.98315 331.586 10.0046 331.451 10.0731 331.338C10.1417 331.226 10.2517 331.145 10.3794 331.114L151.959 296.398C245.048 273.577 342.271 273.577 435.359 296.398C481.66 307.743 529.158 313.481 576.828 313.488C624.499 313.481 671.995 307.743 718.295 296.398C811.384 273.577 908.607 273.577 1001.7 296.398C1048 307.742 1095.49 313.478 1143.16 313.485C1190.83 313.479 1238.33 307.742 1284.63 296.398C1377.71 273.577 1474.94 273.577 1568.03 296.398L1709.61 331.106C1709.73 331.134 1709.83 331.206 1709.9 331.306C1709.97 331.407 1710 331.53 1709.99 331.651C1709.97 331.773 1709.92 331.885 1709.82 331.966C1709.73 332.047 1709.61 332.092 1709.49 332.092L1709.5 332.098Z" fill="white" fill-opacity="0.15"/>
<path d="M1709.5 358C1709.46 358 1709.42 357.995 1709.38 357.986L1567.8 323.278C1474.86 300.494 1377.8 300.494 1284.87 323.278C1238.49 334.641 1190.91 340.387 1143.17 340.394C1095.42 340.387 1047.84 334.641 1001.47 323.278C908.531 300.494 811.469 300.494 718.535 323.278C672.159 334.641 624.584 340.387 576.835 340.394C529.087 340.387 481.512 334.641 435.135 323.278C342.201 300.494 245.139 300.494 152.205 323.278L10.6134 357.988C10.4852 358.018 10.3503 357.996 10.2379 357.928C10.1256 357.859 10.0449 357.749 10.0134 357.621C9.98315 357.493 10.0046 357.358 10.0731 357.246C10.1417 357.133 10.2517 357.052 10.3794 357.021L151.962 322.313C245.051 299.492 342.274 299.492 435.362 322.313C481.662 333.657 529.158 339.394 576.827 339.4C624.498 339.392 671.995 333.652 718.295 322.306C811.384 299.485 908.607 299.485 1001.7 322.306C1048 333.65 1095.49 339.387 1143.16 339.393C1190.83 339.387 1238.32 333.65 1284.62 322.306C1377.71 299.485 1474.94 299.485 1568.02 322.306L1709.61 357.014C1709.73 357.042 1709.83 357.114 1709.9 357.214C1709.97 357.315 1710 357.438 1709.99 357.559C1709.97 357.681 1709.91 357.793 1709.82 357.874C1709.73 357.955 1709.61 358 1709.49 358H1709.5Z" fill="white" fill-opacity="0.15"/>
</svg>
